<svg xmlns="http://www.w3.org/2000/svg" xmlns:xlink="http://www.w3.org/1999/xlink" width="50" zoomAndPan="magnify" viewBox="0 0 37.5 37.499999" height="50" preserveAspectRatio="xMidYMid meet" version="1.0"><defs><clipPath id="19bb9ff9cb"><path d="M 4.957031 4.957031 L 32.34375 4.957031 L 32.34375 32.34375 L 4.957031 32.34375 Z M 4.957031 4.957031 " clip-rule="nonzero"/></clipPath></defs><g clip-path="url(#19bb9ff9cb)"><path fill="#686868" d="M 21.753906 30.335938 C 23.714844 29.796875 25.480469 28.78125 26.921875 27.425781 C 25.988281 27.023438 24.964844 26.6875 23.871094 26.425781 C 23.691406 26.945312 23.496094 27.433594 23.285156 27.890625 C 22.839844 28.855469 22.324219 29.679688 21.753906 30.335938 Z M 27.84375 26.453125 C 29.539062 24.460938 30.613281 21.917969 30.753906 19.132812 L 25.082031 19.132812 C 25.035156 21.339844 24.734375 23.410156 24.242188 25.210938 C 25.542969 25.527344 26.753906 25.945312 27.84375 26.453125 Z M 22.621094 26.167969 C 21.511719 25.972656 20.34375 25.855469 19.132812 25.824219 L 19.132812 30.679688 C 20.265625 30.347656 21.3125 29.140625 22.136719 27.359375 C 22.308594 26.984375 22.46875 26.585938 22.621094 26.167969 Z M 17.863281 25.824219 C 16.652344 25.855469 15.484375 25.972656 14.375 26.167969 C 14.527344 26.585938 14.6875 26.984375 14.859375 27.359375 C 15.683594 29.140625 16.730469 30.34375 17.863281 30.679688 Z M 13.125 26.425781 C 12.03125 26.6875 11.007812 27.023438 10.078125 27.425781 C 11.515625 28.78125 13.28125 29.796875 15.246094 30.335938 C 14.671875 29.679688 14.15625 28.855469 13.710938 27.890625 C 13.5 27.433594 13.304688 26.941406 13.125 26.425781 Z M 9.152344 26.453125 C 10.242188 25.949219 11.453125 25.527344 12.753906 25.214844 C 12.261719 23.410156 11.960938 21.339844 11.914062 19.132812 L 6.242188 19.132812 C 6.382812 21.921875 7.457031 24.460938 9.152344 26.453125 Z M 13.996094 24.949219 C 15.226562 24.722656 16.523438 24.585938 17.863281 24.554688 L 17.863281 19.132812 L 13.183594 19.132812 C 13.230469 21.257812 13.519531 23.238281 13.996094 24.949219 Z M 19.132812 24.554688 C 20.476562 24.585938 21.773438 24.722656 23.003906 24.949219 C 23.476562 23.238281 23.765625 21.257812 23.816406 19.132812 L 19.132812 19.132812 Z M 21.753906 6.660156 C 22.328125 7.316406 22.84375 8.140625 23.285156 9.105469 C 23.496094 9.5625 23.691406 10.050781 23.871094 10.570312 C 24.96875 10.308594 25.992188 9.972656 26.921875 9.570312 C 25.484375 8.214844 23.714844 7.199219 21.753906 6.660156 Z M 24.246094 11.78125 C 24.734375 13.585938 25.035156 15.65625 25.082031 17.863281 L 30.753906 17.863281 C 30.613281 15.074219 29.542969 12.535156 27.84375 10.542969 C 26.753906 11.046875 25.546875 11.46875 24.246094 11.78125 Z M 11.914062 17.863281 C 11.960938 15.65625 12.261719 13.585938 12.753906 11.78125 C 11.453125 11.46875 10.242188 11.046875 9.152344 10.542969 C 7.457031 12.535156 6.382812 15.074219 6.242188 17.863281 Z M 13.125 10.570312 C 13.304688 10.050781 13.5 9.5625 13.710938 9.105469 C 14.15625 8.140625 14.671875 7.316406 15.246094 6.660156 C 13.28125 7.199219 11.515625 8.214844 10.078125 9.570312 C 11.007812 9.972656 12.03125 10.308594 13.125 10.570312 Z M 22.136719 9.636719 C 21.316406 7.855469 20.269531 6.652344 19.132812 6.316406 L 19.132812 11.171875 C 20.34375 11.140625 21.511719 11.023438 22.621094 10.828125 C 22.472656 10.410156 22.308594 10.011719 22.136719 9.636719 Z M 17.867188 6.316406 C 16.730469 6.648438 15.683594 7.855469 14.863281 9.636719 C 14.691406 10.011719 14.527344 10.410156 14.378906 10.828125 C 15.488281 11.023438 16.65625 11.140625 17.867188 11.171875 Z M 13.996094 12.046875 C 13.523438 13.757812 13.234375 15.738281 13.183594 17.863281 L 17.867188 17.863281 L 17.867188 12.441406 C 16.523438 12.410156 15.226562 12.273438 13.996094 12.046875 Z M 23.816406 17.863281 C 23.765625 15.738281 23.476562 13.757812 23.003906 12.046875 C 21.773438 12.273438 20.476562 12.410156 19.132812 12.441406 L 19.132812 17.863281 Z M 28.074219 28.074219 C 25.625 30.523438 22.238281 32.039062 18.5 32.039062 C 14.761719 32.039062 11.375 30.523438 8.925781 28.074219 C 6.472656 25.621094 4.957031 22.238281 4.957031 18.496094 C 4.957031 14.757812 6.472656 11.371094 8.925781 8.921875 C 11.375 6.472656 14.761719 4.957031 18.5 4.957031 C 22.238281 4.957031 25.625 6.472656 28.074219 8.921875 C 30.527344 11.375 32.042969 14.757812 32.042969 18.496094 C 32.042969 22.238281 30.527344 25.621094 28.074219 28.074219 Z M 28.074219 28.074219 " fill-opacity="1" fill-rule="nonzero"/></g></svg>